<svg xmlns="http://www.w3.org/2000/svg" version="1.1" xmlns:xlink="http://www.w3.org/1999/xlink" xmlns:svgjs="http://svgjs.com/svgjs" width="1440" height="560" preserveAspectRatio="none" viewBox="0 0 1440 560"><g mask="url(&quot;#SvgjsMask1006&quot;)" fill="none"><path d="M140 101.28C113.75 101.28 104.73 113.29 88.73 140C51.2 202.65 18.5 227.42 32.94 280C44.13 320.75 83.98 319.32 140 326.67C207.51 335.53 210.99 324.88 280 312.42C340.22 301.55 398.46 300.79 398.46 280C398.46 258.03 332.11 263.42 280 226.9C232.23 193.42 242.71 179.48 198.71 140C172.71 116.67 168.74 101.28 140 101.28" stroke="rgba(106, 84, 0, 1)" stroke-width="2"></path><path d="M560 92C533.4 116.54 505.81 117.79 505.81 140C505.81 160.05 529.57 175.47 560 176.52C626.66 178.81 631.4 163.89 700 146.67C704.14 145.63 702.09 142.65 705.49 140C772.09 88.12 772.25 37.61 840 37.61C909.51 37.61 910 88.81 980 140C980 140 980 140 980 140C1050 176.94 1059.86 213.89 1120 213.89C1153.2 213.89 1166.67 174.88 1166.67 140C1166.67 112.36 1145.39 112.29 1120 88.85C1069.56 42.29 1015 25.19 1015 0C1015 -19.23 1067.5 0 1120 0C1168.13 0 1172.86 -12.28 1216.25 0C1242.86 7.53 1238.62 39.62 1260 39.62C1280.3 39.62 1274.54 7.1 1299.62 0C1344.54 -12.71 1349.81 0 1400 0C1470 0 1505 -35 1540 0C1575 35 1540 70 1540 140C1540 164.5 1544.15 165.04 1540 189C1532.02 235.04 1537.93 239.3 1515.73 280C1474.93 354.8 1407.01 374.41 1414 420C1419.14 453.54 1507.79 402.48 1540 438.26C1570.79 472.48 1567.81 526.94 1540 560C1516.59 587.81 1467.25 588.4 1437.56 560C1397.25 521.44 1417.83 426.09 1400 426.09C1382.31 426.09 1406.03 522.21 1366.52 560C1336.03 589.16 1313.26 560 1260 560C1204.95 560 1175.67 590.8 1149.89 560C1117.07 520.8 1154 487.8 1142.79 420C1139.05 397.38 1139.76 379.17 1120 379.17C1058.37 379.17 1050 399.59 980 420C980 420 980 420 980 420C945 490 958.37 511.63 910 560C888.37 581.63 875 560 840 560C770 560 770 560 700 560C630 560 630 560 560 560C490 560 490 560 420 560C368.49 560 366.26 567.93 316.98 560C296.26 556.67 300.67 542.92 280 537.47C212.18 519.59 200.73 505.19 140 513.33C116.73 516.45 134.89 552.37 112 560C64.89 575.7 24.89 591.11 0 560C-31.11 521.11 0 490 0 420C0 350 0 350 0 280C0 210 0 210 0 140C0 70 -35 35 0 0C35 -35 70 0 140 0C210 0 210 0 280 0C350 0 350 0 420 0C490 0 490 0 560 0C608.79 0 657.58 -19.37 657.58 0C657.58 26.63 609.28 46.54 560 92" stroke="rgba(106, 84, 0, 1)" stroke-width="2"></path><path d="M140 64.04C89.24 101.36 82.5 95.64 39.44 140C12.5 167.76 10.57 208.29 0 208.29C-9.15 208.29 0 174.14 0 140C0 70 -35 35 0 0C35 -35 70 0 140 0C184.93 0 229.85 -14.37 229.85 0C229.85 17.65 184.44 31.36 140 64.04" stroke="rgba(106, 84, 0, 1)" stroke-width="2"></path><path d="M255.16 140C255.16 119.49 266.66 117.45 280 96C310.19 47.45 300.55 28.57 342.22 0C370.55 -19.43 381.11 0 420 0C485.63 0 551.25 -24.95 551.25 0C551.25 33.38 488.89 63.28 420 116.67C398.56 133.28 396.25 130.86 370.59 140C326.25 155.8 321.67 166.55 280 166.55C263.95 166.55 255.16 154.76 255.16 140" stroke="rgba(106, 84, 0, 1)" stroke-width="2"></path><path d="M774.12 140C774.12 110.9 806.82 89.85 840 89.85C874.04 89.85 876.42 112.41 908.57 140C946.42 172.48 940.92 179.17 980 210C1029.66 249.17 1086.06 245 1086.06 280C1086.06 315 1028.64 309.87 980 350C943.79 379.87 943.61 381.6 916.36 420C873.61 480.24 880.79 485.97 840 547.27C834.21 555.97 833.43 559.07 823.2 560C763.43 565.44 761.6 560 700 560C630 560 630 560 560 560C490 560 490 560 420 560C401.51 560 399.44 567.36 383.02 560C329.44 535.98 332.57 526.75 280 497.24C211.06 458.54 195.31 407.94 140 423.59C84.38 439.32 109.41 510.05 58.15 560C39.41 578.26 8.53 580.54 0 560C-20.54 510.54 0 490 0 420C0 377.74 -24.03 336.09 0 335.47C45.97 334.29 68.58 412.89 140 416.41C208.58 419.79 206.44 364.77 280 349.26C346.44 335.25 357.05 375.69 420 357.37C476.05 341.06 468.06 317.37 518 280C538.06 264.99 536.23 259.14 560 252.61C627.23 234.14 635 221.34 700 230C737.82 235.04 732.15 255.93 765.63 280C802.15 306.25 804.48 330.64 840 330.64C870 330.64 896.67 306.29 896.67 280C896.67 251.94 866.69 252.44 840 221.95C805.41 182.44 774.12 176.95 774.12 140" stroke="rgba(106, 84, 0, 1)" stroke-width="2"></path><path d="M1120 21.54C1107.51 21.54 1094.55 6.11 1094.55 0C1094.55 -4.66 1107.28 0 1120 0C1131.66 0 1143.33 -4.56 1143.33 0C1143.33 6.21 1131.9 21.54 1120 21.54" stroke="rgba(106, 84, 0, 1)" stroke-width="2"></path><path d="M1228.07 140C1228.07 118.82 1243.57 122.38 1260 105.66C1312.36 52.38 1308.74 42.96 1365.66 0C1378.74 -9.87 1382.83 0 1400 0C1470 0 1494.5 -24.5 1540 0C1564.5 13.19 1552.9 42.42 1540 75.38C1525.51 112.42 1498.53 101.59 1485.22 140C1463.07 203.9 1493.05 216.7 1469.07 280C1450.44 329.16 1441.04 330.11 1400 364.92C1358.5 400.11 1319.66 377.3 1304 420C1283.9 474.84 1343.33 512.76 1328.48 560C1321.33 582.76 1294.24 560 1260 560C1224.61 560 1195.1 583.04 1189.21 560C1177.2 513.04 1205.14 489.57 1224.19 420C1240.53 360.34 1241.84 360.69 1260 301.54C1263.33 290.69 1267.18 290.69 1267.18 280C1267.18 270.58 1262.69 270.96 1260 261.33C1243.13 200.96 1228.07 196.66 1228.07 140" stroke="rgba(106, 84, 0, 1)" stroke-width="2"></path><path d="M1480.24 560C1480.24 538.4 1523.07 488.99 1540 488.99C1552.95 488.99 1556.23 540.72 1540 560C1526.35 576.23 1480.24 573.91 1480.24 560" stroke="rgba(106, 84, 0, 1)" stroke-width="2"></path><path d="M140 26.81C71.89 59.85 44.68 94.71 0 86.15C-25.32 81.3 -26.67 16.41 0 0C43.33 -26.67 70 0 140 0C158.81 0 177.61 -6.02 177.61 0C177.61 7.39 160.69 16.77 140 26.81" stroke="rgba(106, 84, 0, 1)" stroke-width="2"></path><path d="M420 19.44C412.27 19.44 407.04 6.25 407.04 0C407.04 -3.47 413.52 0 420 0C430.94 0 441.88 -4.16 441.88 0C441.88 5.56 429.69 19.44 420 19.44" stroke="rgba(106, 84, 0, 1)" stroke-width="2"></path><path d="M1372 140C1376.73 121.56 1389.35 112 1400 112C1407.92 112 1407.19 125.45 1409.13 140C1418.39 209.45 1426.04 213.11 1422.4 280C1421.48 296.88 1413.42 307.54 1400 307.54C1380.68 307.54 1360.65 302.32 1356.92 280C1346.65 218.55 1355.19 205.56 1372 140" stroke="rgba(106, 84, 0, 1)" stroke-width="2"></path><path d="M0 401.51C10.5 401.51 31.17 403.81 31.61 420C33.32 483.06 19.65 492.05 4.31 560C3.85 562.05 0.06 562.09 0 560C-2.09 492.09 0 490 0 420C0 410.75 -5.3 401.51 0 401.51" stroke="rgba(106, 84, 0, 1)" stroke-width="2"></path><path d="M211.49 420C211.49 402.44 244.52 386.11 280 386.11C330.71 386.11 383.87 402.36 383.87 420C383.87 437.81 330.52 457.01 280 457.01C244.33 457.01 211.49 437.89 211.49 420" stroke="rgba(106, 84, 0, 1)" stroke-width="2"></path><path d="M456.13 420C456.13 372.45 510.15 337.44 560 337.44C604.45 337.44 644.74 373.72 644.74 420C644.74 482.08 605.57 554.17 560 554.17C511.27 554.17 456.13 480.81 456.13 420" stroke="rgba(106, 84, 0, 1)" stroke-width="2"></path><path d="M805 420C805 411.31 824.25 405.11 840 405.11C848.11 405.11 852.73 412.02 852.73 420C852.73 430.07 848.99 441.21 840 441.21C825.13 441.21 805 429.36 805 420" stroke="rgba(106, 84, 0, 1)" stroke-width="2"></path><path d="M1228.54 560C1228.54 529.65 1244.5 477.65 1260 477.65C1275.44 477.65 1290.43 529.42 1290.43 560C1290.43 570.6 1275.22 560 1260 560C1244.27 560 1228.54 570.83 1228.54 560" stroke="rgba(106, 84, 0, 1)" stroke-width="2"></path><path d="M1522.93 560C1522.93 553.83 1535.16 539.71 1540 539.71C1543.7 539.71 1544.64 554.49 1540 560C1536.1 564.64 1522.93 563.97 1522.93 560" stroke="rgba(106, 84, 0, 1)" stroke-width="2"></path></g><defs><mask id="SvgjsMask1006"><rect width="1440" height="560" fill="#ffffff"></rect></mask></defs></svg>